<svg width="1141" height="802" viewBox="0 0 1141 802" fill="none" xmlns="http://www.w3.org/2000/svg">
<path d="M866.5 690L871.776 706.238H888.85L875.037 716.274L880.313 732.512L866.5 722.476L852.687 732.512L857.963 716.274L844.15 706.238H861.224L866.5 690Z" fill="#E5F09E"/>
<path d="M866.5 690L871.776 706.238H888.85L875.037 716.274L880.313 732.512L866.5 722.476L852.687 732.512L857.963 716.274L844.15 706.238H861.224L866.5 690Z" fill="#E5F09E"/>
<path d="M974.5 82L979.776 98.2381H996.85L983.037 108.274L988.313 124.512L974.5 114.476L960.687 124.512L965.963 108.274L952.15 98.2381H969.224L974.5 82Z" fill="#E5F09E"/>
<path d="M974.5 82L979.776 98.2381H996.85L983.037 108.274L988.313 124.512L974.5 114.476L960.687 124.512L965.963 108.274L952.15 98.2381H969.224L974.5 82Z" fill="#E5F09E"/>
<path d="M39.5 501L44.7761 517.238H61.8498L48.0369 527.274L53.313 543.512L39.5 533.476L25.687 543.512L30.9631 527.274L17.1502 517.238H34.2239L39.5 501Z" fill="#E5F09E"/>
<path d="M39.5 501L44.7761 517.238H61.8498L48.0369 527.274L53.313 543.512L39.5 533.476L25.687 543.512L30.9631 527.274L17.1502 517.238H34.2239L39.5 501Z" fill="#E5F09E"/>
<path d="M388.5 0L393.776 16.2381H410.85L397.037 26.2738L402.313 42.5119L388.5 32.4762L374.687 42.5119L379.963 26.2738L366.15 16.2381H383.224L388.5 0Z" fill="#E5F09E"/>
<path d="M388.5 0L393.776 16.2381H410.85L397.037 26.2738L402.313 42.5119L388.5 32.4762L374.687 42.5119L379.963 26.2738L366.15 16.2381H383.224L388.5 0Z" fill="#E5F09E"/>
<path d="M1098.5 404L1103.78 420.238H1120.85L1107.04 430.274L1112.31 446.512L1098.5 436.476L1084.69 446.512L1089.96 430.274L1076.15 420.238H1093.22L1098.5 404Z" fill="#E5F09E"/>
<path d="M1098.5 404L1103.78 420.238H1120.85L1107.04 430.274L1112.31 446.512L1098.5 436.476L1084.69 446.512L1089.96 430.274L1076.15 420.238H1093.22L1098.5 404Z" fill="#E5F09E"/>
<path d="M228.5 755L233.776 771.238H250.85L237.037 781.274L242.313 797.512L228.5 787.476L214.687 797.512L219.963 781.274L206.15 771.238H223.224L228.5 755Z" fill="#E5F09E"/>
<path d="M228.5 755L233.776 771.238H250.85L237.037 781.274L242.313 797.512L228.5 787.476L214.687 797.512L219.963 781.274L206.15 771.238H223.224L228.5 755Z" fill="#E5F09E"/>
<path d="M23.5 43L28.7761 59.2381H45.8498L32.0369 69.2738L37.313 85.5119L23.5 75.4762L9.68703 85.5119L14.9631 69.2738L1.15015 59.2381H18.2239L23.5 43Z" fill="#E5F09E"/>
<path d="M23.5 43L28.7761 59.2381H45.8498L32.0369 69.2738L37.313 85.5119L23.5 75.4762L9.68703 85.5119L14.9631 69.2738L1.15015 59.2381H18.2239L23.5 43Z" fill="#E5F09E"/>
<path d="M593.5 357L598.776 373.238H615.85L602.037 383.274L607.313 399.512L593.5 389.476L579.687 399.512L584.963 383.274L571.15 373.238H588.224L593.5 357Z" fill="#E5F09E"/>
<path d="M593.5 357L598.776 373.238H615.85L602.037 383.274L607.313 399.512L593.5 389.476L579.687 399.512L584.963 383.274L571.15 373.238H588.224L593.5 357Z" fill="#E5F09E"/>
<path d="M295.5 258L300.776 274.238H317.85L304.037 284.274L309.313 300.512L295.5 290.476L281.687 300.512L286.963 284.274L273.15 274.238H290.224L295.5 258Z" fill="#E5F09E"/>
<path d="M703.5 172L708.776 188.238H725.85L712.037 198.274L717.313 214.512L703.5 204.476L689.687 214.512L694.963 198.274L681.15 188.238H698.224L703.5 172Z" fill="#E5F09E"/>
<path d="M476.5 568L481.776 584.238H498.85L485.037 594.274L490.313 610.512L476.5 600.476L462.687 610.512L467.963 594.274L454.15 584.238H471.224L476.5 568Z" fill="#E5F09E"/>
<path d="M218.5 150L223.776 166.238H240.85L227.037 176.274L232.313 192.512L218.5 182.476L204.687 192.512L209.963 176.274L196.15 166.238H213.224L218.5 150Z" fill="#E5F09E"/>
<path d="M941.5 561L946.776 577.238H963.85L950.037 587.274L955.313 603.512L941.5 593.476L927.687 603.512L932.963 587.274L919.15 577.238H936.224L941.5 561Z" fill="#E5F09E"/>
<path d="M530.5 111L535.776 127.238H552.85L539.037 137.274L544.313 153.512L530.5 143.476L516.687 153.512L521.963 137.274L508.15 127.238H525.224L530.5 111Z" fill="#E5F09E"/>
<path d="M302.5 507L307.776 523.238H324.85L311.037 533.274L316.313 549.512L302.5 539.476L288.687 549.512L293.963 533.274L280.15 523.238H297.224L302.5 507Z" fill="#E5F09E"/>
<path d="M802.5 421L807.776 437.238H824.85L811.037 447.274L816.313 463.512L802.5 453.476L788.687 463.512L793.963 447.274L780.15 437.238H797.224L802.5 421Z" fill="#E5F09E"/>
<path d="M133.5 346L138.776 362.238H155.85L142.037 372.274L147.313 388.512L133.5 378.476L119.687 388.512L124.963 372.274L111.15 362.238H128.224L133.5 346Z" fill="#E5F09E"/>
<path d="M583.5 750L588.776 766.238H605.85L592.037 776.274L597.313 792.512L583.5 782.476L569.687 792.512L574.963 776.274L561.15 766.238H578.224L583.5 750Z" fill="#E5F09E"/>
</svg>
