<svg width="1440" height="213" viewBox="0 0 1440 213" fill="none" xmlns="http://www.w3.org/2000/svg">
<rect y="116" width="1440" height="97" fill="#D9D9D9"/>
<ellipse cx="720" cy="116" rx="720" ry="36" fill="#D9D9D9"/>
<path d="M190 48L259.282 105H120.718L190 48Z" fill="#D9D9D9"/>
<path d="M464 48L533.282 105H394.718L464 48Z" fill="#D9D9D9"/>
<path d="M785 55L854.282 112H715.718L785 55Z" fill="#D9D9D9"/>
<path d="M1039 40L1108.28 97H969.718L1039 40Z" fill="#D9D9D9"/>
<path d="M1305 63L1374.28 120H1235.72L1305 63Z" fill="#D9D9D9"/>
<ellipse cx="190.5" cy="52.5" rx="67.5" ry="27.5" fill="white"/>
<ellipse cx="1303.5" cy="52.5" rx="67.5" ry="27.5" fill="white"/>
<ellipse cx="461.5" cy="34.5" rx="142.5" ry="34.5" fill="white"/>
<ellipse cx="767.5" cy="34.5" rx="142.5" ry="34.5" fill="white"/>
<ellipse cx="1044.5" cy="34.5" rx="142.5" ry="34.5" fill="white"/>
<ellipse cx="422.5" cy="157.5" rx="76.5" ry="18.5" fill="#B3B3B3"/>
<ellipse cx="130" cy="137.5" rx="60" ry="11.5" fill="#B3B3B3"/>
<ellipse cx="825.5" cy="130.5" rx="76.5" ry="18.5" fill="#B3B3B3"/>
<ellipse cx="1187" cy="163" rx="126" ry="24" fill="#B3B3B3"/>
</svg>
