<?xml version="1.0" encoding="iso-8859-1"?>
<!-- Uploaded to: SVG Repo, www.svgrepo.com, Generator: SVG Repo Mixer Tools -->
<svg height="800px" width="800px" version="1.1" id="Layer_1" xmlns="http://www.w3.org/2000/svg" xmlns:xlink="http://www.w3.org/1999/xlink" 
	 viewBox="0 0 512 512" xml:space="preserve">
<path style="fill:#FF4D30;" d="M256.001,44.143c-116.82,0-211.86,95.04-211.86,211.86s95.04,211.86,211.86,211.86
	s211.863-95.04,211.863-211.86S372.821,44.143,256.001,44.143z"/>
<path style="opacity:0.1;fill:#231F20;enable-background:new    ;" d="M63.85,256.003c0-113.516,89.744-206.456,202.006-211.624
	c-3.268-0.151-6.551-0.237-9.855-0.237c-116.82,0-211.86,95.04-211.86,211.86s95.04,211.86,211.86,211.86
	c3.304,0,6.587-0.086,9.855-0.237C153.593,462.46,63.85,369.519,63.85,256.003z"/>
<path style="fill:#FF9737;" d="M441.416,432.339c1.232-1.295,2.45-2.604,3.654-3.925c0.261-0.287,0.522-0.575,0.781-0.862
	c1.229-1.357,2.445-2.723,3.645-4.106c0.002-0.002,0.003-0.004,0.006-0.007c1.197-1.381,2.374-2.779,3.542-4.187
	c0.25-0.302,0.499-0.602,0.748-0.905c1.134-1.377,2.254-2.767,3.36-4.169c0.188-0.239,0.373-0.48,0.561-0.718
	c1.004-1.285,1.997-2.58,2.979-3.885c0.184-0.246,0.371-0.488,0.554-0.734c1.067-1.428,2.117-2.868,3.152-4.32
	c0.232-0.324,0.462-0.65,0.693-0.975c1.049-1.48,2.084-2.968,3.102-4.471c5.008-7.404,9.624-15.091,13.851-23.016l0.159-0.261
	c0.217-0.409,0.42-0.828,0.636-1.239c0.742-1.415,1.471-2.838,2.188-4.268c0.354-0.708,0.71-1.415,1.058-2.126
	c0.766-1.563,1.51-3.137,2.244-4.717c0.259-0.555,0.525-1.106,0.777-1.663c0.975-2.14,1.925-4.295,2.843-6.465
	c0.144-0.344,0.279-0.691,0.423-1.035c0.761-1.823,1.504-3.655,2.222-5.498c0.28-0.719,0.551-1.443,0.824-2.166
	c0.572-1.505,1.132-3.014,1.674-4.533c0.282-0.785,0.56-1.573,0.833-2.361c0.535-1.539,1.051-3.086,1.557-4.638
	c0.235-0.72,0.475-1.438,0.703-2.16c0.649-2.055,1.273-4.121,1.871-6.197c0.06-0.206,0.124-0.407,0.183-0.612
	c0.652-2.285,1.267-4.585,1.855-6.896c0.173-0.682,0.335-1.373,0.503-2.059c0.404-1.644,0.799-3.291,1.171-4.947
	c0.187-0.827,0.364-1.655,0.542-2.486c0.337-1.571,0.659-3.147,0.966-4.728c0.16-0.818,0.321-1.636,0.471-2.457
	c0.328-1.778,0.632-3.563,0.923-5.354c0.098-0.599,0.207-1.195,0.299-1.796c0.37-2.384,0.708-4.776,1.011-7.182
	c0.067-0.534,0.12-1.072,0.184-1.607c0.225-1.881,0.435-3.764,0.618-5.657c0.082-0.837,0.151-1.676,0.224-2.514
	c0.142-1.631,0.27-3.265,0.382-4.905c0.06-0.881,0.117-1.763,0.168-2.646c0.098-1.698,0.174-3.399,0.239-5.105
	c0.029-0.781,0.067-1.559,0.089-2.342c0.072-2.47,0.116-4.946,0.116-7.433C512,114.845,397.159,0.003,256.001,0.003
	S0,114.845,0,256.003c0,2.488,0.045,4.963,0.116,7.433c0.022,0.782,0.06,1.56,0.089,2.342c0.065,1.706,0.141,3.408,0.239,5.105
	c0.05,0.884,0.108,1.765,0.168,2.646c0.112,1.64,0.24,3.274,0.382,4.905c0.074,0.839,0.143,1.678,0.225,2.513
	c0.183,1.897,0.393,3.786,0.62,5.669c0.064,0.531,0.116,1.065,0.182,1.595c0.304,2.405,0.641,4.801,1.011,7.186
	c0.093,0.6,0.201,1.196,0.299,1.795c0.29,1.791,0.594,3.576,0.923,5.353c0.151,0.822,0.312,1.642,0.472,2.462
	c0.307,1.579,0.629,3.153,0.964,4.723c0.178,0.831,0.356,1.661,0.544,2.489c0.372,1.655,0.765,3.304,1.17,4.947
	c0.168,0.686,0.33,1.375,0.503,2.059c0.589,2.31,1.203,4.611,1.855,6.896c0.059,0.206,0.123,0.407,0.183,0.612
	c0.598,2.077,1.222,4.142,1.871,6.197c0.228,0.722,0.468,1.44,0.703,2.16c0.505,1.553,1.022,3.099,1.557,4.638
	c0.274,0.789,0.552,1.575,0.833,2.361c0.543,1.519,1.104,3.03,1.676,4.536c0.274,0.72,0.543,1.442,0.822,2.159
	c0.72,1.844,1.463,3.678,2.224,5.502c0.143,0.343,0.278,0.69,0.422,1.033c0.918,2.17,1.868,4.325,2.843,6.465
	c0.252,0.557,0.519,1.108,0.777,1.663c0.734,1.581,1.478,3.153,2.244,4.717c0.349,0.712,0.704,1.419,1.058,2.126
	c0.717,1.43,1.447,2.854,2.188,4.268c0.216,0.411,0.419,0.83,0.636,1.239l0.159,0.261c4.223,7.922,8.838,15.605,13.844,23.005
	c1.019,1.508,2.059,2.999,3.109,4.483c0.23,0.325,0.46,0.651,0.693,0.975c1.037,1.451,2.085,2.892,3.152,4.32
	c0.183,0.247,0.37,0.489,0.554,0.734c0.982,1.305,1.975,2.599,2.979,3.885c0.188,0.239,0.373,0.48,0.561,0.718
	c1.105,1.403,2.226,2.791,3.36,4.169c0.249,0.303,0.498,0.603,0.748,0.905c1.168,1.407,2.345,2.806,3.542,4.187
	c0.002,0.002,0.003,0.004,0.006,0.007c1.199,1.383,2.416,2.749,3.645,4.106c0.26,0.287,0.519,0.575,0.781,0.862
	c1.204,1.321,2.422,2.629,3.654,3.925c0.202,0.212,0.405,0.422,0.609,0.633c1.139,1.189,2.291,2.368,3.453,3.535
	c0.206,0.207,0.408,0.413,0.614,0.62c1.268,1.264,2.549,2.514,3.843,3.752c0.276,0.264,0.555,0.528,0.832,0.791
	c2.661,2.524,5.375,4.992,8.141,7.401c0.288,0.251,0.575,0.502,0.865,0.752c1.357,1.172,2.726,2.331,4.108,3.475
	c0.22,0.182,0.442,0.361,0.664,0.541c1.28,1.052,2.571,2.093,3.873,3.121c0.225,0.178,0.447,0.356,0.672,0.534
	c1.412,1.108,2.838,2.201,4.274,3.278c0.304,0.228,0.61,0.455,0.914,0.681c2.952,2.198,5.953,4.333,9.001,6.405
	c0.311,0.21,0.621,0.422,0.933,0.631c1.495,1.006,3,2.001,4.517,2.977c0.239,0.154,0.481,0.305,0.722,0.457
	c1.405,0.898,2.818,1.782,4.241,2.652c0.242,0.147,0.484,0.298,0.726,0.445c1.543,0.937,3.097,1.854,4.661,2.76
	c0.328,0.19,0.658,0.378,0.989,0.566c3.208,1.836,6.459,3.606,9.752,5.305c0.34,0.174,0.677,0.351,1.018,0.524
	c1.613,0.823,3.235,1.632,4.868,2.423c0.257,0.124,0.517,0.246,0.775,0.37c1.51,0.724,3.028,1.434,4.553,2.129
	c0.264,0.121,0.528,0.243,0.792,0.363c1.653,0.747,3.319,1.473,4.992,2.187c0.354,0.151,0.71,0.301,1.066,0.449
	c3.431,1.444,6.902,2.815,10.406,4.111c0.363,0.135,0.727,0.27,1.092,0.402c1.716,0.627,3.438,1.235,5.172,1.826
	c0.278,0.094,0.559,0.185,0.838,0.279c1.6,0.537,3.205,1.06,4.819,1.567c0.283,0.088,0.564,0.181,0.848,0.268
	c1.75,0.544,3.512,1.067,5.278,1.574c0.379,0.108,0.756,0.213,1.136,0.321c3.624,1.021,7.28,1.965,10.965,2.827
	c0.389,0.092,0.776,0.182,1.165,0.271c1.803,0.413,3.611,0.81,5.428,1.185c0.296,0.061,0.591,0.117,0.888,0.178
	c1.674,0.34,3.356,0.662,5.043,0.968c0.3,0.055,0.598,0.112,0.898,0.165c1.833,0.326,3.671,0.63,5.516,0.916
	c0.401,0.063,0.803,0.122,1.204,0.182c3.786,0.57,7.598,1.056,11.434,1.458c0.407,0.042,0.811,0.085,1.219,0.126
	c1.875,0.187,3.755,0.355,5.643,0.502c0.312,0.023,0.627,0.045,0.941,0.067c1.732,0.127,3.468,0.238,5.212,0.332
	c0.317,0.018,0.634,0.037,0.954,0.052c1.898,0.095,3.802,0.165,5.71,0.218c0.417,0.011,0.834,0.02,1.251,0.029
	c1.96,0.045,3.924,0.075,5.893,0.075c1.97,0,3.933-0.03,5.893-0.075c0.417-0.009,0.834-0.019,1.251-0.029
	c1.908-0.052,3.812-0.123,5.71-0.218c0.318-0.016,0.636-0.035,0.954-0.052c1.744-0.094,3.48-0.204,5.212-0.332
	c0.314-0.022,0.629-0.044,0.941-0.067c1.887-0.146,3.768-0.315,5.643-0.502c0.407-0.041,0.812-0.084,1.219-0.126
	c3.837-0.401,7.649-0.888,11.434-1.458c0.401-0.06,0.803-0.12,1.204-0.182c1.844-0.287,3.683-0.59,5.516-0.916
	c0.3-0.054,0.598-0.112,0.898-0.165c1.687-0.307,3.368-0.63,5.042-0.968c0.297-0.06,0.593-0.116,0.889-0.178
	c1.817-0.375,3.626-0.771,5.428-1.185c0.389-0.089,0.776-0.18,1.165-0.271c3.686-0.862,7.341-1.806,10.965-2.827
	c0.38-0.107,0.757-0.212,1.136-0.321c1.766-0.507,3.526-1.03,5.278-1.574c0.284-0.087,0.565-0.18,0.848-0.268
	c1.613-0.507,3.219-1.03,4.819-1.567c0.279-0.094,0.56-0.185,0.838-0.279c1.734-0.59,3.456-1.2,5.172-1.826
	c0.364-0.132,0.728-0.267,1.091-0.402c3.505-1.296,6.975-2.666,10.406-4.111c0.355-0.15,0.712-0.299,1.066-0.449
	c1.673-0.714,3.338-1.44,4.992-2.187c0.264-0.12,0.528-0.243,0.792-0.363c1.525-0.695,3.044-1.405,4.553-2.129
	c0.259-0.124,0.518-0.246,0.775-0.37c1.633-0.791,3.255-1.6,4.868-2.423c0.341-0.173,0.678-0.35,1.018-0.524
	c3.293-1.699,6.544-3.468,9.752-5.305c0.331-0.189,0.66-0.376,0.989-0.566c1.564-0.906,3.119-1.823,4.661-2.76
	c0.243-0.147,0.485-0.298,0.726-0.445c1.422-0.87,2.836-1.754,4.241-2.652c0.24-0.153,0.483-0.304,0.72-0.457
	c1.517-0.976,3.02-1.969,4.515-2.975c0.314-0.211,0.624-0.423,0.937-0.636c3.047-2.071,6.046-4.207,8.999-6.403
	c0.304-0.227,0.61-0.454,0.914-0.681c1.435-1.079,2.863-2.17,4.274-3.278c0.224-0.176,0.447-0.355,0.672-0.534
	c1.301-1.028,2.591-2.069,3.873-3.121c0.22-0.18,0.442-0.359,0.664-0.541c1.382-1.144,2.751-2.304,4.108-3.475
	c0.29-0.25,0.577-0.5,0.865-0.752c2.767-2.409,5.48-4.877,8.141-7.401c0.277-0.262,0.556-0.527,0.832-0.791
	c1.293-1.238,2.576-2.489,3.843-3.752c0.207-0.207,0.409-0.413,0.614-0.62c1.162-1.167,2.312-2.347,3.453-3.535
	C441.01,432.761,441.213,432.551,441.416,432.339z M234.369,466.767c-106.699-10.869-190.23-101.245-190.23-210.765
	S127.67,56.107,234.369,45.238c7.112-0.725,14.329-1.096,21.63-1.096s14.518,0.371,21.63,1.096
	c106.7,10.869,190.23,101.245,190.23,210.765s-83.531,199.895-190.23,210.765c-7.112,0.725-14.329,1.096-21.63,1.096
	C248.699,467.864,241.483,467.493,234.369,466.767z"/>
<g style="opacity:0.1;">
	<path style="fill:#231F20;" d="M261.367,511.68c-0.318-0.016-0.636-0.035-0.954-0.052c-1.741-0.094-3.479-0.204-5.212-0.332
		c-0.314-0.022-0.629-0.044-0.941-0.067c-1.887-0.146-3.767-0.315-5.643-0.502c-0.405-0.041-0.812-0.084-1.218-0.126
		c-3.838-0.401-7.649-0.888-11.434-1.458c-0.401-0.06-0.804-0.12-1.204-0.182c-1.845-0.287-3.684-0.59-5.516-0.916
		c-0.302-0.054-0.599-0.112-0.899-0.165c-1.687-0.307-3.369-0.63-5.043-0.968c-0.296-0.06-0.592-0.116-0.887-0.178
		c-1.817-0.375-3.626-0.771-5.428-1.185c-0.39-0.089-0.776-0.18-1.165-0.271c-3.687-0.862-7.342-1.806-10.966-2.827
		c-0.379-0.107-0.757-0.212-1.136-0.321c-1.766-0.507-3.526-1.03-5.278-1.574c-0.284-0.087-0.565-0.18-0.848-0.268
		c-1.613-0.507-3.219-1.03-4.818-1.567c-0.279-0.094-0.559-0.185-0.838-0.279c-1.732-0.59-3.456-1.2-5.172-1.826
		c-0.364-0.132-0.727-0.267-1.091-0.402c-3.505-1.296-6.975-2.666-10.406-4.111c-0.355-0.15-0.712-0.299-1.066-0.449
		c-1.672-0.714-3.337-1.44-4.992-2.187c-0.264-0.12-0.527-0.243-0.791-0.363c-1.526-0.695-3.045-1.405-4.554-2.129
		c-0.258-0.124-0.518-0.246-0.775-0.37c-1.633-0.791-3.255-1.6-4.868-2.423c-0.341-0.173-0.678-0.35-1.018-0.524
		c-3.292-1.699-6.544-3.468-9.752-5.305c-0.33-0.189-0.659-0.376-0.989-0.566c-1.563-0.906-3.119-1.823-4.661-2.76
		c-0.244-0.147-0.484-0.298-0.725-0.445c-1.423-0.87-2.837-1.754-4.242-2.652c-0.24-0.153-0.481-0.304-0.722-0.457
		c-1.517-0.976-3.022-1.97-4.517-2.977c-0.311-0.21-0.622-0.421-0.933-0.631c-3.048-2.072-6.048-4.208-9-6.405
		c-0.305-0.227-0.611-0.454-0.914-0.681c-1.436-1.079-2.863-2.17-4.275-3.278c-0.225-0.176-0.447-0.355-0.672-0.534
		c-1.301-1.028-2.591-2.069-3.873-3.121c-0.22-0.18-0.442-0.359-0.662-0.541c-1.383-1.144-2.751-2.304-4.11-3.475
		c-0.289-0.25-0.577-0.5-0.865-0.752c-2.767-2.409-5.48-4.877-8.141-7.401c-0.277-0.262-0.555-0.527-0.832-0.791
		c-1.294-1.238-2.576-2.489-3.843-3.752c-0.207-0.207-0.409-0.413-0.614-0.62c-1.162-1.167-2.312-2.347-3.452-3.535
		c-0.203-0.211-0.408-0.421-0.61-0.633c-1.232-1.295-2.449-2.604-3.654-3.925c-0.261-0.287-0.522-0.575-0.781-0.862
		c-1.228-1.357-2.445-2.723-3.645-4.106c-0.002-0.002-0.003-0.004-0.006-0.007c-1.196-1.381-2.374-2.779-3.542-4.187
		c-0.25-0.302-0.499-0.602-0.748-0.905c-1.134-1.377-2.254-2.767-3.36-4.169c-0.188-0.239-0.373-0.48-0.561-0.718
		c-1.004-1.285-1.997-2.58-2.979-3.885c-0.184-0.246-0.371-0.488-0.554-0.734c-1.066-1.428-2.116-2.868-3.152-4.32
		c-0.232-0.324-0.461-0.65-0.693-0.975c-1.05-1.483-2.09-2.975-3.109-4.483c-5.005-7.4-9.62-15.083-13.844-23.005l-0.159-0.261
		c-0.217-0.409-0.42-0.828-0.634-1.239c-0.743-1.415-1.472-2.838-2.189-4.268c-0.354-0.708-0.71-1.415-1.058-2.126
		c-0.764-1.563-1.509-3.137-2.244-4.717c-0.257-0.555-0.524-1.106-0.777-1.663c-0.975-2.14-1.925-4.295-2.842-6.465
		c-0.145-0.343-0.28-0.69-0.423-1.033c-0.762-1.824-1.504-3.657-2.223-5.502c-0.28-0.717-0.55-1.439-0.822-2.159
		c-0.572-1.507-1.133-3.017-1.677-4.536c-0.281-0.786-0.56-1.573-0.833-2.361c-0.535-1.539-1.051-3.086-1.557-4.638
		c-0.233-0.72-0.475-1.438-0.703-2.16c-0.648-2.055-1.273-4.121-1.871-6.197c-0.06-0.206-0.124-0.407-0.183-0.612
		c-0.651-2.285-1.267-4.585-1.855-6.896c-0.173-0.682-0.334-1.373-0.503-2.059c-0.404-1.643-0.798-3.291-1.17-4.947
		c-0.187-0.828-0.365-1.658-0.544-2.489c-0.336-1.568-0.657-3.143-0.964-4.723c-0.16-0.82-0.321-1.64-0.472-2.462
		c-0.328-1.777-0.632-3.562-0.923-5.353c-0.097-0.599-0.207-1.195-0.299-1.795c-0.37-2.385-0.708-4.78-1.011-7.186
		c-0.067-0.531-0.12-1.063-0.182-1.595c-0.226-1.884-0.436-3.772-0.62-5.669c-0.082-0.836-0.151-1.674-0.223-2.513
		c-0.143-1.631-0.271-3.265-0.383-4.905c-0.06-0.881-0.116-1.763-0.168-2.646c-0.098-1.698-0.174-3.399-0.239-5.105
		c-0.029-0.781-0.067-1.559-0.089-2.342c-0.07-2.47-0.116-4.946-0.116-7.433c0-138.108,109.935-251.003,246.889-255.821
		c-3.025-0.112-6.06-0.184-9.11-0.184C114.842,0.003,0,114.845,0,256.003c0,2.488,0.045,4.963,0.116,7.433
		c0.022,0.782,0.06,1.56,0.089,2.342c0.065,1.706,0.141,3.408,0.239,5.105c0.05,0.884,0.108,1.765,0.168,2.646
		c0.112,1.64,0.24,3.274,0.382,4.905c0.074,0.839,0.143,1.678,0.225,2.513c0.183,1.897,0.393,3.786,0.62,5.669
		c0.064,0.531,0.116,1.065,0.182,1.595c0.304,2.405,0.641,4.801,1.011,7.186c0.093,0.6,0.201,1.196,0.299,1.795
		c0.29,1.791,0.594,3.576,0.923,5.353c0.151,0.822,0.312,1.642,0.472,2.462c0.307,1.579,0.629,3.153,0.964,4.723
		c0.178,0.831,0.356,1.661,0.544,2.489c0.372,1.655,0.765,3.304,1.17,4.947c0.168,0.686,0.33,1.375,0.503,2.059
		c0.589,2.31,1.203,4.611,1.855,6.896c0.059,0.206,0.123,0.407,0.183,0.612c0.598,2.077,1.222,4.142,1.871,6.197
		c0.228,0.722,0.468,1.44,0.703,2.16c0.505,1.553,1.022,3.099,1.557,4.638c0.274,0.789,0.552,1.575,0.833,2.361
		c0.543,1.519,1.104,3.03,1.676,4.536c0.274,0.72,0.543,1.442,0.822,2.159c0.72,1.844,1.463,3.678,2.224,5.502
		c0.143,0.343,0.278,0.69,0.422,1.033c0.918,2.17,1.868,4.325,2.843,6.465c0.252,0.557,0.519,1.108,0.777,1.663
		c0.734,1.581,1.478,3.153,2.244,4.717c0.349,0.712,0.704,1.419,1.058,2.126c0.717,1.43,1.447,2.854,2.188,4.268
		c0.216,0.411,0.419,0.83,0.636,1.239l0.159,0.261c4.223,7.922,8.838,15.605,13.844,23.005c1.019,1.508,2.059,2.999,3.109,4.483
		c0.23,0.325,0.46,0.651,0.693,0.975c1.037,1.451,2.085,2.892,3.152,4.32c0.183,0.247,0.37,0.489,0.554,0.734
		c0.982,1.305,1.975,2.599,2.979,3.885c0.188,0.239,0.373,0.48,0.561,0.718c1.105,1.403,2.226,2.791,3.36,4.169
		c0.249,0.303,0.498,0.603,0.748,0.905c1.168,1.407,2.345,2.806,3.542,4.187c0.002,0.002,0.003,0.004,0.006,0.007
		c1.199,1.383,2.416,2.749,3.645,4.106c0.26,0.287,0.519,0.575,0.781,0.862c1.204,1.321,2.422,2.629,3.654,3.925
		c0.202,0.212,0.405,0.422,0.609,0.633c1.139,1.189,2.291,2.368,3.453,3.535c0.206,0.207,0.408,0.413,0.614,0.62
		c1.268,1.264,2.549,2.514,3.843,3.752c0.276,0.264,0.555,0.528,0.832,0.791c2.661,2.524,5.375,4.992,8.141,7.401
		c0.288,0.251,0.575,0.502,0.865,0.752c1.357,1.172,2.726,2.331,4.108,3.475c0.22,0.182,0.442,0.361,0.664,0.541
		c1.28,1.052,2.571,2.093,3.873,3.121c0.225,0.178,0.447,0.356,0.672,0.534c1.412,1.108,2.838,2.201,4.274,3.278
		c0.304,0.228,0.61,0.455,0.914,0.681c2.952,2.198,5.953,4.333,9.001,6.405c0.311,0.21,0.621,0.422,0.933,0.631
		c1.495,1.006,3,2.001,4.517,2.977c0.239,0.154,0.481,0.305,0.722,0.457c1.405,0.898,2.818,1.782,4.241,2.652
		c0.242,0.147,0.484,0.298,0.726,0.445c1.543,0.937,3.097,1.854,4.661,2.76c0.328,0.19,0.658,0.378,0.989,0.566
		c3.208,1.836,6.459,3.606,9.752,5.305c0.34,0.174,0.677,0.351,1.018,0.524c1.613,0.823,3.235,1.632,4.868,2.423
		c0.257,0.124,0.517,0.246,0.775,0.37c1.51,0.724,3.028,1.434,4.553,2.129c0.264,0.121,0.528,0.243,0.792,0.363
		c1.653,0.747,3.319,1.473,4.992,2.187c0.354,0.151,0.71,0.301,1.066,0.449c3.431,1.444,6.902,2.815,10.406,4.111
		c0.363,0.135,0.727,0.27,1.092,0.402c1.716,0.627,3.438,1.235,5.172,1.826c0.278,0.094,0.559,0.185,0.838,0.279
		c1.6,0.537,3.205,1.06,4.819,1.567c0.283,0.088,0.564,0.181,0.848,0.268c1.75,0.544,3.512,1.067,5.278,1.574
		c0.379,0.108,0.756,0.213,1.136,0.321c3.624,1.021,7.28,1.965,10.965,2.827c0.389,0.092,0.776,0.182,1.165,0.271
		c1.803,0.413,3.611,0.81,5.428,1.185c0.296,0.061,0.591,0.117,0.888,0.178c1.674,0.34,3.356,0.662,5.043,0.968
		c0.3,0.055,0.598,0.112,0.898,0.165c1.833,0.326,3.671,0.63,5.516,0.916c0.401,0.063,0.803,0.122,1.204,0.182
		c3.786,0.57,7.598,1.056,11.434,1.458c0.407,0.042,0.811,0.085,1.219,0.126c1.875,0.187,3.755,0.355,5.643,0.502
		c0.312,0.023,0.627,0.045,0.941,0.067c1.732,0.127,3.468,0.238,5.212,0.332c0.317,0.018,0.634,0.037,0.954,0.052
		c1.898,0.095,3.802,0.165,5.71,0.218c0.417,0.011,0.834,0.02,1.251,0.029c1.96,0.045,3.924,0.075,5.893,0.075
		c1.97,0,3.933-0.03,5.893-0.075c0.417-0.009,0.834-0.019,1.251-0.029c0.658-0.018,1.31-0.052,1.967-0.075
		C263.862,511.78,262.612,511.742,261.367,511.68z"/>
</g>
<g>
	<path style="fill:#D33F2F;" d="M356.05,174.379H60.502c-2.293,5.471-4.356,11.063-6.192,16.755H356.05
		c4.627,0,8.378-3.75,8.378-8.378C364.427,178.13,360.676,174.379,356.05,174.379z"/>
	<path style="fill:#D33F2F;" d="M467.849,257.133H197.736c-4.628,0-8.378,3.75-8.378,8.378s3.75,8.378,8.378,8.378h269.363
		C467.565,268.36,467.819,262.772,467.849,257.133z"/>
	<path style="fill:#D33F2F;" d="M450.532,339.885H311.057c-4.627,0-8.378,3.75-8.378,8.378c0,4.628,3.751,8.378,8.378,8.378h131.337
		C445.345,351.196,448.056,345.604,450.532,339.885z"/>
	<path style="fill:#D33F2F;" d="M282.734,356.64h-17.023c-4.627,0-8.378-3.75-8.378-8.378c0-4.628,3.751-8.378,8.378-8.378h17.023
		c4.627,0,8.378,3.75,8.378,8.378C291.112,352.89,287.361,356.64,282.734,356.64z"/>
</g>
</svg>