<svg width="1349" height="876" viewBox="0 0 1349 876" fill="none" xmlns="http://www.w3.org/2000/svg">
<g filter="url(#filter0_f_1_94)">
<path d="M103.616 794.131L106.016 803.68H113.782L107.499 809.582L109.899 819.131L103.616 813.229L97.3323 819.131L99.7323 809.582L93.449 803.68H101.216L103.616 794.131Z" fill="#F1E368" fill-opacity="0.19"/>
</g>
<g filter="url(#filter1_d_1_94)">
<path d="M103.632 801.711L104.84 806.037H108.747L105.586 808.71L106.793 813.037L103.632 810.363L100.471 813.037L101.678 808.71L98.5173 806.037H102.425L103.632 801.711Z" fill="#F1E368"/>
</g>
<g filter="url(#filter2_f_1_94)">
<ellipse cx="102.5" cy="809.5" rx="17.5" ry="16.5" fill="#F1E368" fill-opacity="0.14"/>
</g>
<g filter="url(#filter3_f_1_94)">
<path d="M321.616 123.131L324.016 132.68H331.782L325.499 138.582L327.899 148.131L321.616 142.229L315.332 148.131L317.732 138.582L311.449 132.68H319.216L321.616 123.131Z" fill="#F1E368" fill-opacity="0.19"/>
</g>
<g filter="url(#filter4_d_1_94)">
<path d="M321.632 130.711L322.84 135.037H326.747L323.586 137.71L324.793 142.037L321.632 139.363L318.471 142.037L319.678 137.71L316.517 135.037H320.425L321.632 130.711Z" fill="#F1E368"/>
</g>
<g filter="url(#filter5_f_1_94)">
<ellipse cx="320.5" cy="138.5" rx="17.5" ry="16.5" fill="#F1E368" fill-opacity="0.14"/>
</g>
<g filter="url(#filter6_f_1_94)">
<path d="M1168.62 165.131L1171.02 174.68H1178.78L1172.5 180.582L1174.9 190.131L1168.62 184.229L1162.33 190.131L1164.73 180.582L1158.45 174.68H1166.22L1168.62 165.131Z" fill="#F1E368" fill-opacity="0.19"/>
</g>
<g filter="url(#filter7_d_1_94)">
<path d="M1168.63 172.711L1169.84 177.037H1173.75L1170.59 179.71L1171.79 184.037L1168.63 181.363L1165.47 184.037L1166.68 179.71L1163.52 177.037H1167.42L1168.63 172.711Z" fill="#F1E368"/>
</g>
<g filter="url(#filter8_f_1_94)">
<ellipse cx="1167.5" cy="180.5" rx="17.5" ry="16.5" fill="#F1E368" fill-opacity="0.14"/>
</g>
<g filter="url(#filter9_f_1_94)">
<path d="M1282.62 358.131L1285.02 367.68H1292.78L1286.5 373.582L1288.9 383.131L1282.62 377.229L1276.33 383.131L1278.73 373.582L1272.45 367.68H1280.22L1282.62 358.131Z" fill="#F1E368" fill-opacity="0.19"/>
</g>
<g filter="url(#filter10_d_1_94)">
<path d="M1282.63 365.711L1283.84 370.037H1287.75L1284.59 372.71L1285.79 377.037L1282.63 374.363L1279.47 377.037L1280.68 372.71L1277.52 370.037H1281.42L1282.63 365.711Z" fill="#F1E368"/>
</g>
<g filter="url(#filter11_f_1_94)">
<ellipse cx="1281.5" cy="373.5" rx="17.5" ry="16.5" fill="#F1E368" fill-opacity="0.14"/>
</g>
<g filter="url(#filter12_f_1_94)">
<path d="M911.616 640.131L914.016 649.68H921.782L915.499 655.582L917.899 665.131L911.616 659.229L905.332 665.131L907.732 655.582L901.449 649.68H909.216L911.616 640.131Z" fill="#F1E368" fill-opacity="0.19"/>
</g>
<g filter="url(#filter13_d_1_94)">
<path d="M911.632 647.711L912.84 652.037H916.747L913.586 654.71L914.793 659.037L911.632 656.363L908.471 659.037L909.679 654.71L906.517 652.037H910.425L911.632 647.711Z" fill="#F1E368"/>
</g>
<g filter="url(#filter14_f_1_94)">
<ellipse cx="910.5" cy="655.5" rx="17.5" ry="16.5" fill="#F1E368" fill-opacity="0.14"/>
</g>
<g filter="url(#filter15_f_1_94)">
<path d="M542.616 628.131L545.016 637.68H552.782L546.499 643.582L548.899 653.131L542.616 647.229L536.332 653.131L538.732 643.582L532.449 637.68H540.216L542.616 628.131Z" fill="#F1E368" fill-opacity="0.19"/>
</g>
<g filter="url(#filter16_d_1_94)">
<path d="M542.632 635.711L543.84 640.037H547.747L544.586 642.71L545.793 647.037L542.632 644.363L539.471 647.037L540.679 642.71L537.517 640.037H541.425L542.632 635.711Z" fill="#F1E368"/>
</g>
<g filter="url(#filter17_f_1_94)">
<ellipse cx="541.5" cy="643.5" rx="17.5" ry="16.5" fill="#F1E368" fill-opacity="0.14"/>
</g>
<g filter="url(#filter18_f_1_94)">
<path d="M265.616 595.131L268.016 604.68H275.782L269.499 610.582L271.899 620.131L265.616 614.229L259.332 620.131L261.732 610.582L255.449 604.68H263.216L265.616 595.131Z" fill="#F1E368" fill-opacity="0.19"/>
</g>
<g filter="url(#filter19_d_1_94)">
<path d="M265.632 602.711L266.84 607.037H270.747L267.586 609.71L268.793 614.037L265.632 611.363L262.471 614.037L263.678 609.71L260.517 607.037H264.425L265.632 602.711Z" fill="#F1E368"/>
</g>
<g filter="url(#filter20_f_1_94)">
<ellipse cx="264.5" cy="610.5" rx="17.5" ry="16.5" fill="#F1E368" fill-opacity="0.14"/>
</g>
<g filter="url(#filter21_f_1_94)">
<path d="M415.616 480.131L418.016 489.68H425.782L419.499 495.582L421.899 505.131L415.616 499.229L409.332 505.131L411.732 495.582L405.449 489.68H413.216L415.616 480.131Z" fill="#F1E368" fill-opacity="0.19"/>
</g>
<g filter="url(#filter22_d_1_94)">
<path d="M415.632 487.711L416.84 492.037H420.747L417.586 494.71L418.793 499.037L415.632 496.363L412.471 499.037L413.678 494.71L410.517 492.037H414.425L415.632 487.711Z" fill="#F1E368"/>
</g>
<g filter="url(#filter23_f_1_94)">
<ellipse cx="414.5" cy="495.5" rx="17.5" ry="16.5" fill="#F1E368" fill-opacity="0.14"/>
</g>
<g filter="url(#filter24_f_1_94)">
<path d="M961.616 62.1307L964.016 71.68H971.782L965.499 77.5817L967.899 87.131L961.616 81.2292L955.332 87.131L957.732 77.5817L951.449 71.68H959.216L961.616 62.1307Z" fill="#F1E368" fill-opacity="0.19"/>
</g>
<g filter="url(#filter25_d_1_94)">
<path d="M961.632 69.7107L962.84 74.0368H966.747L963.586 76.7104L964.793 81.0365L961.632 78.3629L958.471 81.0365L959.679 76.7104L956.517 74.0368H960.425L961.632 69.7107Z" fill="#F1E368"/>
</g>
<g filter="url(#filter26_f_1_94)">
<ellipse cx="960.5" cy="77.5" rx="17.5" ry="16.5" fill="#F1E368" fill-opacity="0.14"/>
</g>
<g filter="url(#filter27_f_1_94)">
<path d="M531.616 189.131L534.016 198.68H541.782L535.499 204.582L537.899 214.131L531.616 208.229L525.332 214.131L527.732 204.582L521.449 198.68H529.216L531.616 189.131Z" fill="#F1E368" fill-opacity="0.19"/>
</g>
<g filter="url(#filter28_d_1_94)">
<path d="M531.632 196.711L532.84 201.037H536.747L533.586 203.71L534.793 208.037L531.632 205.363L528.471 208.037L529.679 203.71L526.517 201.037H530.425L531.632 196.711Z" fill="#F1E368"/>
</g>
<g filter="url(#filter29_f_1_94)">
<ellipse cx="530.5" cy="204.5" rx="17.5" ry="16.5" fill="#F1E368" fill-opacity="0.14"/>
</g>
<g filter="url(#filter30_f_1_94)">
<path d="M775.616 574.131L778.016 583.68H785.782L779.499 589.582L781.899 599.131L775.616 593.229L769.332 599.131L771.732 589.582L765.449 583.68H773.216L775.616 574.131Z" fill="#F1E368" fill-opacity="0.19"/>
</g>
<g filter="url(#filter31_d_1_94)">
<path d="M775.632 581.711L776.84 586.037H780.747L777.586 588.71L778.793 593.037L775.632 590.363L772.471 593.037L773.679 588.71L770.517 586.037H774.425L775.632 581.711Z" fill="#F1E368"/>
</g>
<g filter="url(#filter32_f_1_94)">
<ellipse cx="774.5" cy="589.5" rx="17.5" ry="16.5" fill="#F1E368" fill-opacity="0.14"/>
</g>
<g filter="url(#filter33_f_1_94)">
<path d="M1160.62 496.131L1163.02 505.68H1170.78L1164.5 511.582L1166.9 521.131L1160.62 515.229L1154.33 521.131L1156.73 511.582L1150.45 505.68H1158.22L1160.62 496.131Z" fill="#F1E368" fill-opacity="0.19"/>
</g>
<g filter="url(#filter34_d_1_94)">
<path d="M1160.63 503.711L1161.84 508.037H1165.75L1162.59 510.71L1163.79 515.037L1160.63 512.363L1157.47 515.037L1158.68 510.71L1155.52 508.037H1159.42L1160.63 503.711Z" fill="#F1E368"/>
</g>
<g filter="url(#filter35_f_1_94)">
<ellipse cx="1159.5" cy="511.5" rx="17.5" ry="16.5" fill="#F1E368" fill-opacity="0.14"/>
</g>
<g filter="url(#filter36_f_1_94)">
<path d="M623.616 448.131L626.016 457.68H633.782L627.499 463.582L629.899 473.131L623.616 467.229L617.332 473.131L619.732 463.582L613.449 457.68H621.216L623.616 448.131Z" fill="#F1E368" fill-opacity="0.19"/>
</g>
<g filter="url(#filter37_d_1_94)">
<path d="M623.632 455.711L624.84 460.037H628.747L625.586 462.71L626.793 467.037L623.632 464.363L620.471 467.037L621.679 462.71L618.517 460.037H622.425L623.632 455.711Z" fill="#F1E368"/>
</g>
<g filter="url(#filter38_f_1_94)">
<ellipse cx="622.5" cy="463.5" rx="17.5" ry="16.5" fill="#F1E368" fill-opacity="0.14"/>
</g>
<g filter="url(#filter39_f_1_94)">
<path d="M236.616 414.131L239.016 423.68H246.782L240.499 429.582L242.899 439.131L236.616 433.229L230.332 439.131L232.732 429.582L226.449 423.68H234.216L236.616 414.131Z" fill="#F1E368" fill-opacity="0.19"/>
</g>
<g filter="url(#filter40_d_1_94)">
<path d="M236.632 421.711L237.84 426.037H241.747L238.586 428.71L239.793 433.037L236.632 430.363L233.471 433.037L234.678 428.71L231.517 426.037H235.425L236.632 421.711Z" fill="#F1E368"/>
</g>
<g filter="url(#filter41_f_1_94)">
<ellipse cx="235.5" cy="429.5" rx="17.5" ry="16.5" fill="#F1E368" fill-opacity="0.14"/>
</g>
<g filter="url(#filter42_f_1_94)">
<path d="M802.616 415.131L805.016 424.68H812.782L806.499 430.582L808.899 440.131L802.616 434.229L796.332 440.131L798.732 430.582L792.449 424.68H800.216L802.616 415.131Z" fill="#F1E368" fill-opacity="0.19"/>
</g>
<g filter="url(#filter43_d_1_94)">
<path d="M802.632 422.711L803.84 427.037H807.747L804.586 429.71L805.793 434.037L802.632 431.363L799.471 434.037L800.679 429.71L797.517 427.037H801.425L802.632 422.711Z" fill="#F1E368"/>
</g>
<g filter="url(#filter44_f_1_94)">
<ellipse cx="801.5" cy="430.5" rx="17.5" ry="16.5" fill="#F1E368" fill-opacity="0.14"/>
</g>
<g filter="url(#filter45_f_1_94)">
<path d="M1159.62 283.131L1162.02 292.68H1169.78L1163.5 298.582L1165.9 308.131L1159.62 302.229L1153.33 308.131L1155.73 298.582L1149.45 292.68H1157.22L1159.62 283.131Z" fill="#F1E368" fill-opacity="0.19"/>
</g>
<g filter="url(#filter46_d_1_94)">
<path d="M1159.63 290.711L1160.84 295.037H1164.75L1161.59 297.71L1162.79 302.037L1159.63 299.363L1156.47 302.037L1157.68 297.71L1154.52 295.037H1158.42L1159.63 290.711Z" fill="#F1E368"/>
</g>
<g filter="url(#filter47_f_1_94)">
<ellipse cx="1158.5" cy="298.5" rx="17.5" ry="16.5" fill="#F1E368" fill-opacity="0.14"/>
</g>
<g filter="url(#filter48_f_1_94)">
<path d="M767.616 232.131L770.016 241.68H777.782L771.499 247.582L773.899 257.131L767.616 251.229L761.332 257.131L763.732 247.582L757.449 241.68H765.216L767.616 232.131Z" fill="#F1E368" fill-opacity="0.19"/>
</g>
<g filter="url(#filter49_d_1_94)">
<path d="M767.632 239.711L768.84 244.037H772.747L769.586 246.71L770.793 251.037L767.632 248.363L764.471 251.037L765.679 246.71L762.517 244.037H766.425L767.632 239.711Z" fill="#F1E368"/>
</g>
<g filter="url(#filter50_f_1_94)">
<ellipse cx="766.5" cy="247.5" rx="17.5" ry="16.5" fill="#F1E368" fill-opacity="0.14"/>
</g>
<g filter="url(#filter51_f_1_94)">
<path d="M201.616 250.131L204.016 259.68H211.782L205.499 265.582L207.899 275.131L201.616 269.229L195.332 275.131L197.732 265.582L191.449 259.68H199.216L201.616 250.131Z" fill="#F1E368" fill-opacity="0.19"/>
</g>
<g filter="url(#filter52_d_1_94)">
<path d="M201.632 257.711L202.84 262.037H206.747L203.586 264.71L204.793 269.037L201.632 266.363L198.471 269.037L199.678 264.71L196.517 262.037H200.425L201.632 257.711Z" fill="#F1E368"/>
</g>
<g filter="url(#filter53_f_1_94)">
<ellipse cx="200.5" cy="265.5" rx="17.5" ry="16.5" fill="#F1E368" fill-opacity="0.14"/>
</g>
<g filter="url(#filter54_f_1_94)">
<path d="M426.616 382.131L429.016 391.68H436.782L430.499 397.582L432.899 407.131L426.616 401.229L420.332 407.131L422.732 397.582L416.449 391.68H424.216L426.616 382.131Z" fill="#F1E368" fill-opacity="0.19"/>
</g>
<g filter="url(#filter55_d_1_94)">
<path d="M426.632 389.711L427.84 394.037H431.747L428.586 396.71L429.793 401.037L426.632 398.363L423.471 401.037L424.678 396.71L421.517 394.037H425.425L426.632 389.711Z" fill="#F1E368"/>
</g>
<g filter="url(#filter56_f_1_94)">
<ellipse cx="425.5" cy="397.5" rx="17.5" ry="16.5" fill="#F1E368" fill-opacity="0.14"/>
</g>
<g filter="url(#filter57_f_1_94)">
<path d="M1247.62 43.1307L1250.02 52.68H1257.78L1251.5 58.5817L1253.9 68.131L1247.62 62.2292L1241.33 68.131L1243.73 58.5817L1237.45 52.68H1245.22L1247.62 43.1307Z" fill="#F1E368" fill-opacity="0.19"/>
</g>
<g filter="url(#filter58_d_1_94)">
<path d="M1247.63 50.7107L1248.84 55.0368H1252.75L1249.59 57.7104L1250.79 62.0365L1247.63 59.3629L1244.47 62.0365L1245.68 57.7104L1242.52 55.0368H1246.42L1247.63 50.7107Z" fill="#F1E368"/>
</g>
<g filter="url(#filter59_f_1_94)">
<ellipse cx="1246.5" cy="58.5" rx="17.5" ry="16.5" fill="#F1E368" fill-opacity="0.14"/>
</g>
<g filter="url(#filter60_f_1_94)">
<path d="M524.616 47.1307L527.016 56.68H534.782L528.499 62.5817L530.899 72.131L524.616 66.2292L518.332 72.131L520.732 62.5817L514.449 56.68H522.216L524.616 47.1307Z" fill="#F1E368" fill-opacity="0.19"/>
</g>
<g filter="url(#filter61_d_1_94)">
<path d="M524.632 54.7107L525.84 59.0368H529.747L526.586 61.7104L527.793 66.0365L524.632 63.3629L521.471 66.0365L522.679 61.7104L519.517 59.0368H523.425L524.632 54.7107Z" fill="#F1E368"/>
</g>
<g filter="url(#filter62_f_1_94)">
<ellipse cx="523.5" cy="62.5" rx="17.5" ry="16.5" fill="#F1E368" fill-opacity="0.14"/>
</g>
<g filter="url(#filter63_f_1_94)">
<path d="M52.6156 42.1307L55.0156 51.68H62.7822L56.4989 57.5817L58.8989 67.131L52.6156 61.2292L46.3323 67.131L48.7323 57.5817L42.449 51.68H50.2156L52.6156 42.1307Z" fill="#F1E368" fill-opacity="0.19"/>
</g>
<g filter="url(#filter64_d_1_94)">
<path d="M52.6322 49.7107L53.8397 54.0368H57.7472L54.586 56.7104L55.7935 61.0365L52.6322 58.3629L49.471 61.0365L50.6785 56.7104L47.5173 54.0368H51.4248L52.6322 49.7107Z" fill="#F1E368"/>
</g>
<g filter="url(#filter65_f_1_94)">
<ellipse cx="51.5" cy="57.5" rx="17.5" ry="16.5" fill="#F1E368" fill-opacity="0.14"/>
</g>
<defs>
<filter id="filter0_f_1_94" x="83.449" y="784.131" width="40.3333" height="45.0002" filterUnits="userSpaceOnUse" color-interpolation-filters="sRGB">
<feFlood flood-opacity="0" result="BackgroundImageFix"/>
<feBlend mode="normal" in="SourceGraphic" in2="BackgroundImageFix" result="shape"/>
<feGaussianBlur stdDeviation="5" result="effect1_foregroundBlur_1_94"/>
</filter>
<filter id="filter1_d_1_94" x="94.5173" y="801.711" width="18.2299" height="19.3259" filterUnits="userSpaceOnUse" color-interpolation-filters="sRGB">
<feFlood flood-opacity="0" result="BackgroundImageFix"/>
<feColorMatrix in="SourceAlpha" type="matrix" values="0 0 0 0 0 0 0 0 0 0 0 0 0 0 0 0 0 0 127 0" result="hardAlpha"/>
<feOffset dy="4"/>
<feGaussianBlur stdDeviation="2"/>
<feComposite in2="hardAlpha" operator="out"/>
<feColorMatrix type="matrix" values="0 0 0 0 0.920667 0 0 0 0 1 0 0 0 0 0.433333 0 0 0 1 0"/>
<feBlend mode="normal" in2="BackgroundImageFix" result="effect1_dropShadow_1_94"/>
<feBlend mode="normal" in="SourceGraphic" in2="effect1_dropShadow_1_94" result="shape"/>
</filter>
<filter id="filter2_f_1_94" x="35" y="743" width="135" height="133" filterUnits="userSpaceOnUse" color-interpolation-filters="sRGB">
<feFlood flood-opacity="0" result="BackgroundImageFix"/>
<feBlend mode="normal" in="SourceGraphic" in2="BackgroundImageFix" result="shape"/>
<feGaussianBlur stdDeviation="25" result="effect1_foregroundBlur_1_94"/>
</filter>
<filter id="filter3_f_1_94" x="301.449" y="113.131" width="40.3333" height="45.0002" filterUnits="userSpaceOnUse" color-interpolation-filters="sRGB">
<feFlood flood-opacity="0" result="BackgroundImageFix"/>
<feBlend mode="normal" in="SourceGraphic" in2="BackgroundImageFix" result="shape"/>
<feGaussianBlur stdDeviation="5" result="effect1_foregroundBlur_1_94"/>
</filter>
<filter id="filter4_d_1_94" x="312.517" y="130.711" width="18.23" height="19.3259" filterUnits="userSpaceOnUse" color-interpolation-filters="sRGB">
<feFlood flood-opacity="0" result="BackgroundImageFix"/>
<feColorMatrix in="SourceAlpha" type="matrix" values="0 0 0 0 0 0 0 0 0 0 0 0 0 0 0 0 0 0 127 0" result="hardAlpha"/>
<feOffset dy="4"/>
<feGaussianBlur stdDeviation="2"/>
<feComposite in2="hardAlpha" operator="out"/>
<feColorMatrix type="matrix" values="0 0 0 0 0.920667 0 0 0 0 1 0 0 0 0 0.433333 0 0 0 1 0"/>
<feBlend mode="normal" in2="BackgroundImageFix" result="effect1_dropShadow_1_94"/>
<feBlend mode="normal" in="SourceGraphic" in2="effect1_dropShadow_1_94" result="shape"/>
</filter>
<filter id="filter5_f_1_94" x="253" y="72" width="135" height="133" filterUnits="userSpaceOnUse" color-interpolation-filters="sRGB">
<feFlood flood-opacity="0" result="BackgroundImageFix"/>
<feBlend mode="normal" in="SourceGraphic" in2="BackgroundImageFix" result="shape"/>
<feGaussianBlur stdDeviation="25" result="effect1_foregroundBlur_1_94"/>
</filter>
<filter id="filter6_f_1_94" x="1148.45" y="155.131" width="40.3333" height="45.0002" filterUnits="userSpaceOnUse" color-interpolation-filters="sRGB">
<feFlood flood-opacity="0" result="BackgroundImageFix"/>
<feBlend mode="normal" in="SourceGraphic" in2="BackgroundImageFix" result="shape"/>
<feGaussianBlur stdDeviation="5" result="effect1_foregroundBlur_1_94"/>
</filter>
<filter id="filter7_d_1_94" x="1159.52" y="172.711" width="18.23" height="19.3259" filterUnits="userSpaceOnUse" color-interpolation-filters="sRGB">
<feFlood flood-opacity="0" result="BackgroundImageFix"/>
<feColorMatrix in="SourceAlpha" type="matrix" values="0 0 0 0 0 0 0 0 0 0 0 0 0 0 0 0 0 0 127 0" result="hardAlpha"/>
<feOffset dy="4"/>
<feGaussianBlur stdDeviation="2"/>
<feComposite in2="hardAlpha" operator="out"/>
<feColorMatrix type="matrix" values="0 0 0 0 0.920667 0 0 0 0 1 0 0 0 0 0.433333 0 0 0 1 0"/>
<feBlend mode="normal" in2="BackgroundImageFix" result="effect1_dropShadow_1_94"/>
<feBlend mode="normal" in="SourceGraphic" in2="effect1_dropShadow_1_94" result="shape"/>
</filter>
<filter id="filter8_f_1_94" x="1100" y="114" width="135" height="133" filterUnits="userSpaceOnUse" color-interpolation-filters="sRGB">
<feFlood flood-opacity="0" result="BackgroundImageFix"/>
<feBlend mode="normal" in="SourceGraphic" in2="BackgroundImageFix" result="shape"/>
<feGaussianBlur stdDeviation="25" result="effect1_foregroundBlur_1_94"/>
</filter>
<filter id="filter9_f_1_94" x="1262.45" y="348.131" width="40.3333" height="45.0002" filterUnits="userSpaceOnUse" color-interpolation-filters="sRGB">
<feFlood flood-opacity="0" result="BackgroundImageFix"/>
<feBlend mode="normal" in="SourceGraphic" in2="BackgroundImageFix" result="shape"/>
<feGaussianBlur stdDeviation="5" result="effect1_foregroundBlur_1_94"/>
</filter>
<filter id="filter10_d_1_94" x="1273.52" y="365.711" width="18.2299" height="19.3259" filterUnits="userSpaceOnUse" color-interpolation-filters="sRGB">
<feFlood flood-opacity="0" result="BackgroundImageFix"/>
<feColorMatrix in="SourceAlpha" type="matrix" values="0 0 0 0 0 0 0 0 0 0 0 0 0 0 0 0 0 0 127 0" result="hardAlpha"/>
<feOffset dy="4"/>
<feGaussianBlur stdDeviation="2"/>
<feComposite in2="hardAlpha" operator="out"/>
<feColorMatrix type="matrix" values="0 0 0 0 0.920667 0 0 0 0 1 0 0 0 0 0.433333 0 0 0 1 0"/>
<feBlend mode="normal" in2="BackgroundImageFix" result="effect1_dropShadow_1_94"/>
<feBlend mode="normal" in="SourceGraphic" in2="effect1_dropShadow_1_94" result="shape"/>
</filter>
<filter id="filter11_f_1_94" x="1214" y="307" width="135" height="133" filterUnits="userSpaceOnUse" color-interpolation-filters="sRGB">
<feFlood flood-opacity="0" result="BackgroundImageFix"/>
<feBlend mode="normal" in="SourceGraphic" in2="BackgroundImageFix" result="shape"/>
<feGaussianBlur stdDeviation="25" result="effect1_foregroundBlur_1_94"/>
</filter>
<filter id="filter12_f_1_94" x="891.449" y="630.131" width="40.3333" height="45.0002" filterUnits="userSpaceOnUse" color-interpolation-filters="sRGB">
<feFlood flood-opacity="0" result="BackgroundImageFix"/>
<feBlend mode="normal" in="SourceGraphic" in2="BackgroundImageFix" result="shape"/>
<feGaussianBlur stdDeviation="5" result="effect1_foregroundBlur_1_94"/>
</filter>
<filter id="filter13_d_1_94" x="902.517" y="647.711" width="18.23" height="19.3259" filterUnits="userSpaceOnUse" color-interpolation-filters="sRGB">
<feFlood flood-opacity="0" result="BackgroundImageFix"/>
<feColorMatrix in="SourceAlpha" type="matrix" values="0 0 0 0 0 0 0 0 0 0 0 0 0 0 0 0 0 0 127 0" result="hardAlpha"/>
<feOffset dy="4"/>
<feGaussianBlur stdDeviation="2"/>
<feComposite in2="hardAlpha" operator="out"/>
<feColorMatrix type="matrix" values="0 0 0 0 0.920667 0 0 0 0 1 0 0 0 0 0.433333 0 0 0 1 0"/>
<feBlend mode="normal" in2="BackgroundImageFix" result="effect1_dropShadow_1_94"/>
<feBlend mode="normal" in="SourceGraphic" in2="effect1_dropShadow_1_94" result="shape"/>
</filter>
<filter id="filter14_f_1_94" x="843" y="589" width="135" height="133" filterUnits="userSpaceOnUse" color-interpolation-filters="sRGB">
<feFlood flood-opacity="0" result="BackgroundImageFix"/>
<feBlend mode="normal" in="SourceGraphic" in2="BackgroundImageFix" result="shape"/>
<feGaussianBlur stdDeviation="25" result="effect1_foregroundBlur_1_94"/>
</filter>
<filter id="filter15_f_1_94" x="522.449" y="618.131" width="40.3333" height="45.0002" filterUnits="userSpaceOnUse" color-interpolation-filters="sRGB">
<feFlood flood-opacity="0" result="BackgroundImageFix"/>
<feBlend mode="normal" in="SourceGraphic" in2="BackgroundImageFix" result="shape"/>
<feGaussianBlur stdDeviation="5" result="effect1_foregroundBlur_1_94"/>
</filter>
<filter id="filter16_d_1_94" x="533.517" y="635.711" width="18.23" height="19.3259" filterUnits="userSpaceOnUse" color-interpolation-filters="sRGB">
<feFlood flood-opacity="0" result="BackgroundImageFix"/>
<feColorMatrix in="SourceAlpha" type="matrix" values="0 0 0 0 0 0 0 0 0 0 0 0 0 0 0 0 0 0 127 0" result="hardAlpha"/>
<feOffset dy="4"/>
<feGaussianBlur stdDeviation="2"/>
<feComposite in2="hardAlpha" operator="out"/>
<feColorMatrix type="matrix" values="0 0 0 0 0.920667 0 0 0 0 1 0 0 0 0 0.433333 0 0 0 1 0"/>
<feBlend mode="normal" in2="BackgroundImageFix" result="effect1_dropShadow_1_94"/>
<feBlend mode="normal" in="SourceGraphic" in2="effect1_dropShadow_1_94" result="shape"/>
</filter>
<filter id="filter17_f_1_94" x="474" y="577" width="135" height="133" filterUnits="userSpaceOnUse" color-interpolation-filters="sRGB">
<feFlood flood-opacity="0" result="BackgroundImageFix"/>
<feBlend mode="normal" in="SourceGraphic" in2="BackgroundImageFix" result="shape"/>
<feGaussianBlur stdDeviation="25" result="effect1_foregroundBlur_1_94"/>
</filter>
<filter id="filter18_f_1_94" x="245.449" y="585.131" width="40.3333" height="45.0002" filterUnits="userSpaceOnUse" color-interpolation-filters="sRGB">
<feFlood flood-opacity="0" result="BackgroundImageFix"/>
<feBlend mode="normal" in="SourceGraphic" in2="BackgroundImageFix" result="shape"/>
<feGaussianBlur stdDeviation="5" result="effect1_foregroundBlur_1_94"/>
</filter>
<filter id="filter19_d_1_94" x="256.517" y="602.711" width="18.23" height="19.3259" filterUnits="userSpaceOnUse" color-interpolation-filters="sRGB">
<feFlood flood-opacity="0" result="BackgroundImageFix"/>
<feColorMatrix in="SourceAlpha" type="matrix" values="0 0 0 0 0 0 0 0 0 0 0 0 0 0 0 0 0 0 127 0" result="hardAlpha"/>
<feOffset dy="4"/>
<feGaussianBlur stdDeviation="2"/>
<feComposite in2="hardAlpha" operator="out"/>
<feColorMatrix type="matrix" values="0 0 0 0 0.920667 0 0 0 0 1 0 0 0 0 0.433333 0 0 0 1 0"/>
<feBlend mode="normal" in2="BackgroundImageFix" result="effect1_dropShadow_1_94"/>
<feBlend mode="normal" in="SourceGraphic" in2="effect1_dropShadow_1_94" result="shape"/>
</filter>
<filter id="filter20_f_1_94" x="197" y="544" width="135" height="133" filterUnits="userSpaceOnUse" color-interpolation-filters="sRGB">
<feFlood flood-opacity="0" result="BackgroundImageFix"/>
<feBlend mode="normal" in="SourceGraphic" in2="BackgroundImageFix" result="shape"/>
<feGaussianBlur stdDeviation="25" result="effect1_foregroundBlur_1_94"/>
</filter>
<filter id="filter21_f_1_94" x="395.449" y="470.131" width="40.3333" height="45.0002" filterUnits="userSpaceOnUse" color-interpolation-filters="sRGB">
<feFlood flood-opacity="0" result="BackgroundImageFix"/>
<feBlend mode="normal" in="SourceGraphic" in2="BackgroundImageFix" result="shape"/>
<feGaussianBlur stdDeviation="5" result="effect1_foregroundBlur_1_94"/>
</filter>
<filter id="filter22_d_1_94" x="406.517" y="487.711" width="18.23" height="19.3259" filterUnits="userSpaceOnUse" color-interpolation-filters="sRGB">
<feFlood flood-opacity="0" result="BackgroundImageFix"/>
<feColorMatrix in="SourceAlpha" type="matrix" values="0 0 0 0 0 0 0 0 0 0 0 0 0 0 0 0 0 0 127 0" result="hardAlpha"/>
<feOffset dy="4"/>
<feGaussianBlur stdDeviation="2"/>
<feComposite in2="hardAlpha" operator="out"/>
<feColorMatrix type="matrix" values="0 0 0 0 0.920667 0 0 0 0 1 0 0 0 0 0.433333 0 0 0 1 0"/>
<feBlend mode="normal" in2="BackgroundImageFix" result="effect1_dropShadow_1_94"/>
<feBlend mode="normal" in="SourceGraphic" in2="effect1_dropShadow_1_94" result="shape"/>
</filter>
<filter id="filter23_f_1_94" x="347" y="429" width="135" height="133" filterUnits="userSpaceOnUse" color-interpolation-filters="sRGB">
<feFlood flood-opacity="0" result="BackgroundImageFix"/>
<feBlend mode="normal" in="SourceGraphic" in2="BackgroundImageFix" result="shape"/>
<feGaussianBlur stdDeviation="25" result="effect1_foregroundBlur_1_94"/>
</filter>
<filter id="filter24_f_1_94" x="941.449" y="52.1307" width="40.3333" height="45.0002" filterUnits="userSpaceOnUse" color-interpolation-filters="sRGB">
<feFlood flood-opacity="0" result="BackgroundImageFix"/>
<feBlend mode="normal" in="SourceGraphic" in2="BackgroundImageFix" result="shape"/>
<feGaussianBlur stdDeviation="5" result="effect1_foregroundBlur_1_94"/>
</filter>
<filter id="filter25_d_1_94" x="952.517" y="69.7107" width="18.23" height="19.3259" filterUnits="userSpaceOnUse" color-interpolation-filters="sRGB">
<feFlood flood-opacity="0" result="BackgroundImageFix"/>
<feColorMatrix in="SourceAlpha" type="matrix" values="0 0 0 0 0 0 0 0 0 0 0 0 0 0 0 0 0 0 127 0" result="hardAlpha"/>
<feOffset dy="4"/>
<feGaussianBlur stdDeviation="2"/>
<feComposite in2="hardAlpha" operator="out"/>
<feColorMatrix type="matrix" values="0 0 0 0 0.920667 0 0 0 0 1 0 0 0 0 0.433333 0 0 0 1 0"/>
<feBlend mode="normal" in2="BackgroundImageFix" result="effect1_dropShadow_1_94"/>
<feBlend mode="normal" in="SourceGraphic" in2="effect1_dropShadow_1_94" result="shape"/>
</filter>
<filter id="filter26_f_1_94" x="893" y="11" width="135" height="133" filterUnits="userSpaceOnUse" color-interpolation-filters="sRGB">
<feFlood flood-opacity="0" result="BackgroundImageFix"/>
<feBlend mode="normal" in="SourceGraphic" in2="BackgroundImageFix" result="shape"/>
<feGaussianBlur stdDeviation="25" result="effect1_foregroundBlur_1_94"/>
</filter>
<filter id="filter27_f_1_94" x="511.449" y="179.131" width="40.3333" height="45.0002" filterUnits="userSpaceOnUse" color-interpolation-filters="sRGB">
<feFlood flood-opacity="0" result="BackgroundImageFix"/>
<feBlend mode="normal" in="SourceGraphic" in2="BackgroundImageFix" result="shape"/>
<feGaussianBlur stdDeviation="5" result="effect1_foregroundBlur_1_94"/>
</filter>
<filter id="filter28_d_1_94" x="522.517" y="196.711" width="18.23" height="19.3259" filterUnits="userSpaceOnUse" color-interpolation-filters="sRGB">
<feFlood flood-opacity="0" result="BackgroundImageFix"/>
<feColorMatrix in="SourceAlpha" type="matrix" values="0 0 0 0 0 0 0 0 0 0 0 0 0 0 0 0 0 0 127 0" result="hardAlpha"/>
<feOffset dy="4"/>
<feGaussianBlur stdDeviation="2"/>
<feComposite in2="hardAlpha" operator="out"/>
<feColorMatrix type="matrix" values="0 0 0 0 0.920667 0 0 0 0 1 0 0 0 0 0.433333 0 0 0 1 0"/>
<feBlend mode="normal" in2="BackgroundImageFix" result="effect1_dropShadow_1_94"/>
<feBlend mode="normal" in="SourceGraphic" in2="effect1_dropShadow_1_94" result="shape"/>
</filter>
<filter id="filter29_f_1_94" x="463" y="138" width="135" height="133" filterUnits="userSpaceOnUse" color-interpolation-filters="sRGB">
<feFlood flood-opacity="0" result="BackgroundImageFix"/>
<feBlend mode="normal" in="SourceGraphic" in2="BackgroundImageFix" result="shape"/>
<feGaussianBlur stdDeviation="25" result="effect1_foregroundBlur_1_94"/>
</filter>
<filter id="filter30_f_1_94" x="755.449" y="564.131" width="40.3332" height="45.0002" filterUnits="userSpaceOnUse" color-interpolation-filters="sRGB">
<feFlood flood-opacity="0" result="BackgroundImageFix"/>
<feBlend mode="normal" in="SourceGraphic" in2="BackgroundImageFix" result="shape"/>
<feGaussianBlur stdDeviation="5" result="effect1_foregroundBlur_1_94"/>
</filter>
<filter id="filter31_d_1_94" x="766.517" y="581.711" width="18.23" height="19.3259" filterUnits="userSpaceOnUse" color-interpolation-filters="sRGB">
<feFlood flood-opacity="0" result="BackgroundImageFix"/>
<feColorMatrix in="SourceAlpha" type="matrix" values="0 0 0 0 0 0 0 0 0 0 0 0 0 0 0 0 0 0 127 0" result="hardAlpha"/>
<feOffset dy="4"/>
<feGaussianBlur stdDeviation="2"/>
<feComposite in2="hardAlpha" operator="out"/>
<feColorMatrix type="matrix" values="0 0 0 0 0.920667 0 0 0 0 1 0 0 0 0 0.433333 0 0 0 1 0"/>
<feBlend mode="normal" in2="BackgroundImageFix" result="effect1_dropShadow_1_94"/>
<feBlend mode="normal" in="SourceGraphic" in2="effect1_dropShadow_1_94" result="shape"/>
</filter>
<filter id="filter32_f_1_94" x="707" y="523" width="135" height="133" filterUnits="userSpaceOnUse" color-interpolation-filters="sRGB">
<feFlood flood-opacity="0" result="BackgroundImageFix"/>
<feBlend mode="normal" in="SourceGraphic" in2="BackgroundImageFix" result="shape"/>
<feGaussianBlur stdDeviation="25" result="effect1_foregroundBlur_1_94"/>
</filter>
<filter id="filter33_f_1_94" x="1140.45" y="486.131" width="40.3333" height="45.0002" filterUnits="userSpaceOnUse" color-interpolation-filters="sRGB">
<feFlood flood-opacity="0" result="BackgroundImageFix"/>
<feBlend mode="normal" in="SourceGraphic" in2="BackgroundImageFix" result="shape"/>
<feGaussianBlur stdDeviation="5" result="effect1_foregroundBlur_1_94"/>
</filter>
<filter id="filter34_d_1_94" x="1151.52" y="503.711" width="18.23" height="19.3259" filterUnits="userSpaceOnUse" color-interpolation-filters="sRGB">
<feFlood flood-opacity="0" result="BackgroundImageFix"/>
<feColorMatrix in="SourceAlpha" type="matrix" values="0 0 0 0 0 0 0 0 0 0 0 0 0 0 0 0 0 0 127 0" result="hardAlpha"/>
<feOffset dy="4"/>
<feGaussianBlur stdDeviation="2"/>
<feComposite in2="hardAlpha" operator="out"/>
<feColorMatrix type="matrix" values="0 0 0 0 0.920667 0 0 0 0 1 0 0 0 0 0.433333 0 0 0 1 0"/>
<feBlend mode="normal" in2="BackgroundImageFix" result="effect1_dropShadow_1_94"/>
<feBlend mode="normal" in="SourceGraphic" in2="effect1_dropShadow_1_94" result="shape"/>
</filter>
<filter id="filter35_f_1_94" x="1092" y="445" width="135" height="133" filterUnits="userSpaceOnUse" color-interpolation-filters="sRGB">
<feFlood flood-opacity="0" result="BackgroundImageFix"/>
<feBlend mode="normal" in="SourceGraphic" in2="BackgroundImageFix" result="shape"/>
<feGaussianBlur stdDeviation="25" result="effect1_foregroundBlur_1_94"/>
</filter>
<filter id="filter36_f_1_94" x="603.449" y="438.131" width="40.3333" height="45.0002" filterUnits="userSpaceOnUse" color-interpolation-filters="sRGB">
<feFlood flood-opacity="0" result="BackgroundImageFix"/>
<feBlend mode="normal" in="SourceGraphic" in2="BackgroundImageFix" result="shape"/>
<feGaussianBlur stdDeviation="5" result="effect1_foregroundBlur_1_94"/>
</filter>
<filter id="filter37_d_1_94" x="614.517" y="455.711" width="18.23" height="19.3259" filterUnits="userSpaceOnUse" color-interpolation-filters="sRGB">
<feFlood flood-opacity="0" result="BackgroundImageFix"/>
<feColorMatrix in="SourceAlpha" type="matrix" values="0 0 0 0 0 0 0 0 0 0 0 0 0 0 0 0 0 0 127 0" result="hardAlpha"/>
<feOffset dy="4"/>
<feGaussianBlur stdDeviation="2"/>
<feComposite in2="hardAlpha" operator="out"/>
<feColorMatrix type="matrix" values="0 0 0 0 0.920667 0 0 0 0 1 0 0 0 0 0.433333 0 0 0 1 0"/>
<feBlend mode="normal" in2="BackgroundImageFix" result="effect1_dropShadow_1_94"/>
<feBlend mode="normal" in="SourceGraphic" in2="effect1_dropShadow_1_94" result="shape"/>
</filter>
<filter id="filter38_f_1_94" x="555" y="397" width="135" height="133" filterUnits="userSpaceOnUse" color-interpolation-filters="sRGB">
<feFlood flood-opacity="0" result="BackgroundImageFix"/>
<feBlend mode="normal" in="SourceGraphic" in2="BackgroundImageFix" result="shape"/>
<feGaussianBlur stdDeviation="25" result="effect1_foregroundBlur_1_94"/>
</filter>
<filter id="filter39_f_1_94" x="216.449" y="404.131" width="40.3333" height="45.0002" filterUnits="userSpaceOnUse" color-interpolation-filters="sRGB">
<feFlood flood-opacity="0" result="BackgroundImageFix"/>
<feBlend mode="normal" in="SourceGraphic" in2="BackgroundImageFix" result="shape"/>
<feGaussianBlur stdDeviation="5" result="effect1_foregroundBlur_1_94"/>
</filter>
<filter id="filter40_d_1_94" x="227.517" y="421.711" width="18.23" height="19.3259" filterUnits="userSpaceOnUse" color-interpolation-filters="sRGB">
<feFlood flood-opacity="0" result="BackgroundImageFix"/>
<feColorMatrix in="SourceAlpha" type="matrix" values="0 0 0 0 0 0 0 0 0 0 0 0 0 0 0 0 0 0 127 0" result="hardAlpha"/>
<feOffset dy="4"/>
<feGaussianBlur stdDeviation="2"/>
<feComposite in2="hardAlpha" operator="out"/>
<feColorMatrix type="matrix" values="0 0 0 0 0.920667 0 0 0 0 1 0 0 0 0 0.433333 0 0 0 1 0"/>
<feBlend mode="normal" in2="BackgroundImageFix" result="effect1_dropShadow_1_94"/>
<feBlend mode="normal" in="SourceGraphic" in2="effect1_dropShadow_1_94" result="shape"/>
</filter>
<filter id="filter41_f_1_94" x="168" y="363" width="135" height="133" filterUnits="userSpaceOnUse" color-interpolation-filters="sRGB">
<feFlood flood-opacity="0" result="BackgroundImageFix"/>
<feBlend mode="normal" in="SourceGraphic" in2="BackgroundImageFix" result="shape"/>
<feGaussianBlur stdDeviation="25" result="effect1_foregroundBlur_1_94"/>
</filter>
<filter id="filter42_f_1_94" x="782.449" y="405.131" width="40.3333" height="45.0002" filterUnits="userSpaceOnUse" color-interpolation-filters="sRGB">
<feFlood flood-opacity="0" result="BackgroundImageFix"/>
<feBlend mode="normal" in="SourceGraphic" in2="BackgroundImageFix" result="shape"/>
<feGaussianBlur stdDeviation="5" result="effect1_foregroundBlur_1_94"/>
</filter>
<filter id="filter43_d_1_94" x="793.517" y="422.711" width="18.23" height="19.3259" filterUnits="userSpaceOnUse" color-interpolation-filters="sRGB">
<feFlood flood-opacity="0" result="BackgroundImageFix"/>
<feColorMatrix in="SourceAlpha" type="matrix" values="0 0 0 0 0 0 0 0 0 0 0 0 0 0 0 0 0 0 127 0" result="hardAlpha"/>
<feOffset dy="4"/>
<feGaussianBlur stdDeviation="2"/>
<feComposite in2="hardAlpha" operator="out"/>
<feColorMatrix type="matrix" values="0 0 0 0 0.920667 0 0 0 0 1 0 0 0 0 0.433333 0 0 0 1 0"/>
<feBlend mode="normal" in2="BackgroundImageFix" result="effect1_dropShadow_1_94"/>
<feBlend mode="normal" in="SourceGraphic" in2="effect1_dropShadow_1_94" result="shape"/>
</filter>
<filter id="filter44_f_1_94" x="734" y="364" width="135" height="133" filterUnits="userSpaceOnUse" color-interpolation-filters="sRGB">
<feFlood flood-opacity="0" result="BackgroundImageFix"/>
<feBlend mode="normal" in="SourceGraphic" in2="BackgroundImageFix" result="shape"/>
<feGaussianBlur stdDeviation="25" result="effect1_foregroundBlur_1_94"/>
</filter>
<filter id="filter45_f_1_94" x="1139.45" y="273.131" width="40.3333" height="45.0002" filterUnits="userSpaceOnUse" color-interpolation-filters="sRGB">
<feFlood flood-opacity="0" result="BackgroundImageFix"/>
<feBlend mode="normal" in="SourceGraphic" in2="BackgroundImageFix" result="shape"/>
<feGaussianBlur stdDeviation="5" result="effect1_foregroundBlur_1_94"/>
</filter>
<filter id="filter46_d_1_94" x="1150.52" y="290.711" width="18.23" height="19.3259" filterUnits="userSpaceOnUse" color-interpolation-filters="sRGB">
<feFlood flood-opacity="0" result="BackgroundImageFix"/>
<feColorMatrix in="SourceAlpha" type="matrix" values="0 0 0 0 0 0 0 0 0 0 0 0 0 0 0 0 0 0 127 0" result="hardAlpha"/>
<feOffset dy="4"/>
<feGaussianBlur stdDeviation="2"/>
<feComposite in2="hardAlpha" operator="out"/>
<feColorMatrix type="matrix" values="0 0 0 0 0.920667 0 0 0 0 1 0 0 0 0 0.433333 0 0 0 1 0"/>
<feBlend mode="normal" in2="BackgroundImageFix" result="effect1_dropShadow_1_94"/>
<feBlend mode="normal" in="SourceGraphic" in2="effect1_dropShadow_1_94" result="shape"/>
</filter>
<filter id="filter47_f_1_94" x="1091" y="232" width="135" height="133" filterUnits="userSpaceOnUse" color-interpolation-filters="sRGB">
<feFlood flood-opacity="0" result="BackgroundImageFix"/>
<feBlend mode="normal" in="SourceGraphic" in2="BackgroundImageFix" result="shape"/>
<feGaussianBlur stdDeviation="25" result="effect1_foregroundBlur_1_94"/>
</filter>
<filter id="filter48_f_1_94" x="747.449" y="222.131" width="40.3332" height="45.0002" filterUnits="userSpaceOnUse" color-interpolation-filters="sRGB">
<feFlood flood-opacity="0" result="BackgroundImageFix"/>
<feBlend mode="normal" in="SourceGraphic" in2="BackgroundImageFix" result="shape"/>
<feGaussianBlur stdDeviation="5" result="effect1_foregroundBlur_1_94"/>
</filter>
<filter id="filter49_d_1_94" x="758.517" y="239.711" width="18.23" height="19.3259" filterUnits="userSpaceOnUse" color-interpolation-filters="sRGB">
<feFlood flood-opacity="0" result="BackgroundImageFix"/>
<feColorMatrix in="SourceAlpha" type="matrix" values="0 0 0 0 0 0 0 0 0 0 0 0 0 0 0 0 0 0 127 0" result="hardAlpha"/>
<feOffset dy="4"/>
<feGaussianBlur stdDeviation="2"/>
<feComposite in2="hardAlpha" operator="out"/>
<feColorMatrix type="matrix" values="0 0 0 0 0.920667 0 0 0 0 1 0 0 0 0 0.433333 0 0 0 1 0"/>
<feBlend mode="normal" in2="BackgroundImageFix" result="effect1_dropShadow_1_94"/>
<feBlend mode="normal" in="SourceGraphic" in2="effect1_dropShadow_1_94" result="shape"/>
</filter>
<filter id="filter50_f_1_94" x="699" y="181" width="135" height="133" filterUnits="userSpaceOnUse" color-interpolation-filters="sRGB">
<feFlood flood-opacity="0" result="BackgroundImageFix"/>
<feBlend mode="normal" in="SourceGraphic" in2="BackgroundImageFix" result="shape"/>
<feGaussianBlur stdDeviation="25" result="effect1_foregroundBlur_1_94"/>
</filter>
<filter id="filter51_f_1_94" x="181.449" y="240.131" width="40.3333" height="45.0002" filterUnits="userSpaceOnUse" color-interpolation-filters="sRGB">
<feFlood flood-opacity="0" result="BackgroundImageFix"/>
<feBlend mode="normal" in="SourceGraphic" in2="BackgroundImageFix" result="shape"/>
<feGaussianBlur stdDeviation="5" result="effect1_foregroundBlur_1_94"/>
</filter>
<filter id="filter52_d_1_94" x="192.517" y="257.711" width="18.2299" height="19.3259" filterUnits="userSpaceOnUse" color-interpolation-filters="sRGB">
<feFlood flood-opacity="0" result="BackgroundImageFix"/>
<feColorMatrix in="SourceAlpha" type="matrix" values="0 0 0 0 0 0 0 0 0 0 0 0 0 0 0 0 0 0 127 0" result="hardAlpha"/>
<feOffset dy="4"/>
<feGaussianBlur stdDeviation="2"/>
<feComposite in2="hardAlpha" operator="out"/>
<feColorMatrix type="matrix" values="0 0 0 0 0.920667 0 0 0 0 1 0 0 0 0 0.433333 0 0 0 1 0"/>
<feBlend mode="normal" in2="BackgroundImageFix" result="effect1_dropShadow_1_94"/>
<feBlend mode="normal" in="SourceGraphic" in2="effect1_dropShadow_1_94" result="shape"/>
</filter>
<filter id="filter53_f_1_94" x="133" y="199" width="135" height="133" filterUnits="userSpaceOnUse" color-interpolation-filters="sRGB">
<feFlood flood-opacity="0" result="BackgroundImageFix"/>
<feBlend mode="normal" in="SourceGraphic" in2="BackgroundImageFix" result="shape"/>
<feGaussianBlur stdDeviation="25" result="effect1_foregroundBlur_1_94"/>
</filter>
<filter id="filter54_f_1_94" x="406.449" y="372.131" width="40.3333" height="45.0002" filterUnits="userSpaceOnUse" color-interpolation-filters="sRGB">
<feFlood flood-opacity="0" result="BackgroundImageFix"/>
<feBlend mode="normal" in="SourceGraphic" in2="BackgroundImageFix" result="shape"/>
<feGaussianBlur stdDeviation="5" result="effect1_foregroundBlur_1_94"/>
</filter>
<filter id="filter55_d_1_94" x="417.517" y="389.711" width="18.23" height="19.3259" filterUnits="userSpaceOnUse" color-interpolation-filters="sRGB">
<feFlood flood-opacity="0" result="BackgroundImageFix"/>
<feColorMatrix in="SourceAlpha" type="matrix" values="0 0 0 0 0 0 0 0 0 0 0 0 0 0 0 0 0 0 127 0" result="hardAlpha"/>
<feOffset dy="4"/>
<feGaussianBlur stdDeviation="2"/>
<feComposite in2="hardAlpha" operator="out"/>
<feColorMatrix type="matrix" values="0 0 0 0 0.920667 0 0 0 0 1 0 0 0 0 0.433333 0 0 0 1 0"/>
<feBlend mode="normal" in2="BackgroundImageFix" result="effect1_dropShadow_1_94"/>
<feBlend mode="normal" in="SourceGraphic" in2="effect1_dropShadow_1_94" result="shape"/>
</filter>
<filter id="filter56_f_1_94" x="358" y="331" width="135" height="133" filterUnits="userSpaceOnUse" color-interpolation-filters="sRGB">
<feFlood flood-opacity="0" result="BackgroundImageFix"/>
<feBlend mode="normal" in="SourceGraphic" in2="BackgroundImageFix" result="shape"/>
<feGaussianBlur stdDeviation="25" result="effect1_foregroundBlur_1_94"/>
</filter>
<filter id="filter57_f_1_94" x="1227.45" y="33.1307" width="40.3333" height="45.0002" filterUnits="userSpaceOnUse" color-interpolation-filters="sRGB">
<feFlood flood-opacity="0" result="BackgroundImageFix"/>
<feBlend mode="normal" in="SourceGraphic" in2="BackgroundImageFix" result="shape"/>
<feGaussianBlur stdDeviation="5" result="effect1_foregroundBlur_1_94"/>
</filter>
<filter id="filter58_d_1_94" x="1238.52" y="50.7107" width="18.2299" height="19.3259" filterUnits="userSpaceOnUse" color-interpolation-filters="sRGB">
<feFlood flood-opacity="0" result="BackgroundImageFix"/>
<feColorMatrix in="SourceAlpha" type="matrix" values="0 0 0 0 0 0 0 0 0 0 0 0 0 0 0 0 0 0 127 0" result="hardAlpha"/>
<feOffset dy="4"/>
<feGaussianBlur stdDeviation="2"/>
<feComposite in2="hardAlpha" operator="out"/>
<feColorMatrix type="matrix" values="0 0 0 0 0.920667 0 0 0 0 1 0 0 0 0 0.433333 0 0 0 1 0"/>
<feBlend mode="normal" in2="BackgroundImageFix" result="effect1_dropShadow_1_94"/>
<feBlend mode="normal" in="SourceGraphic" in2="effect1_dropShadow_1_94" result="shape"/>
</filter>
<filter id="filter59_f_1_94" x="1179" y="-8" width="135" height="133" filterUnits="userSpaceOnUse" color-interpolation-filters="sRGB">
<feFlood flood-opacity="0" result="BackgroundImageFix"/>
<feBlend mode="normal" in="SourceGraphic" in2="BackgroundImageFix" result="shape"/>
<feGaussianBlur stdDeviation="25" result="effect1_foregroundBlur_1_94"/>
</filter>
<filter id="filter60_f_1_94" x="504.449" y="37.1307" width="40.3333" height="45.0002" filterUnits="userSpaceOnUse" color-interpolation-filters="sRGB">
<feFlood flood-opacity="0" result="BackgroundImageFix"/>
<feBlend mode="normal" in="SourceGraphic" in2="BackgroundImageFix" result="shape"/>
<feGaussianBlur stdDeviation="5" result="effect1_foregroundBlur_1_94"/>
</filter>
<filter id="filter61_d_1_94" x="515.517" y="54.7107" width="18.23" height="19.3259" filterUnits="userSpaceOnUse" color-interpolation-filters="sRGB">
<feFlood flood-opacity="0" result="BackgroundImageFix"/>
<feColorMatrix in="SourceAlpha" type="matrix" values="0 0 0 0 0 0 0 0 0 0 0 0 0 0 0 0 0 0 127 0" result="hardAlpha"/>
<feOffset dy="4"/>
<feGaussianBlur stdDeviation="2"/>
<feComposite in2="hardAlpha" operator="out"/>
<feColorMatrix type="matrix" values="0 0 0 0 0.920667 0 0 0 0 1 0 0 0 0 0.433333 0 0 0 1 0"/>
<feBlend mode="normal" in2="BackgroundImageFix" result="effect1_dropShadow_1_94"/>
<feBlend mode="normal" in="SourceGraphic" in2="effect1_dropShadow_1_94" result="shape"/>
</filter>
<filter id="filter62_f_1_94" x="456" y="-4" width="135" height="133" filterUnits="userSpaceOnUse" color-interpolation-filters="sRGB">
<feFlood flood-opacity="0" result="BackgroundImageFix"/>
<feBlend mode="normal" in="SourceGraphic" in2="BackgroundImageFix" result="shape"/>
<feGaussianBlur stdDeviation="25" result="effect1_foregroundBlur_1_94"/>
</filter>
<filter id="filter63_f_1_94" x="32.449" y="32.1307" width="40.3333" height="45.0002" filterUnits="userSpaceOnUse" color-interpolation-filters="sRGB">
<feFlood flood-opacity="0" result="BackgroundImageFix"/>
<feBlend mode="normal" in="SourceGraphic" in2="BackgroundImageFix" result="shape"/>
<feGaussianBlur stdDeviation="5" result="effect1_foregroundBlur_1_94"/>
</filter>
<filter id="filter64_d_1_94" x="43.5173" y="49.7107" width="18.2299" height="19.3259" filterUnits="userSpaceOnUse" color-interpolation-filters="sRGB">
<feFlood flood-opacity="0" result="BackgroundImageFix"/>
<feColorMatrix in="SourceAlpha" type="matrix" values="0 0 0 0 0 0 0 0 0 0 0 0 0 0 0 0 0 0 127 0" result="hardAlpha"/>
<feOffset dy="4"/>
<feGaussianBlur stdDeviation="2"/>
<feComposite in2="hardAlpha" operator="out"/>
<feColorMatrix type="matrix" values="0 0 0 0 0.920667 0 0 0 0 1 0 0 0 0 0.433333 0 0 0 1 0"/>
<feBlend mode="normal" in2="BackgroundImageFix" result="effect1_dropShadow_1_94"/>
<feBlend mode="normal" in="SourceGraphic" in2="effect1_dropShadow_1_94" result="shape"/>
</filter>
<filter id="filter65_f_1_94" x="-16" y="-9" width="135" height="133" filterUnits="userSpaceOnUse" color-interpolation-filters="sRGB">
<feFlood flood-opacity="0" result="BackgroundImageFix"/>
<feBlend mode="normal" in="SourceGraphic" in2="BackgroundImageFix" result="shape"/>
<feGaussianBlur stdDeviation="25" result="effect1_foregroundBlur_1_94"/>
</filter>
</defs>
</svg>
