<?xml version="1.0" encoding="iso-8859-1"?>
<!-- Uploaded to: SVG Repo, www.svgrepo.com, Generator: SVG Repo Mixer Tools -->
<svg height="800px" width="800px" version="1.1" id="Layer_1" xmlns="http://www.w3.org/2000/svg" xmlns:xlink="http://www.w3.org/1999/xlink" 
	 viewBox="0 0 512 512" xml:space="preserve">
<path style="fill:#3A5D74;" d="M123.282,412.532v19.394c0,12.049,9.769,21.816,21.817,21.816h168.138h28.96h24.704
	c12.051,0,21.817-9.767,21.817-21.816v-19.394H123.282z"/>
<path style="opacity:0.1;fill:#231F20;enable-background:new    ;" d="M141.453,431.926v-19.394h-18.172v19.394
	c0,12.049,9.769,21.816,21.817,21.816h18.172C151.223,453.742,141.453,443.975,141.453,431.926z"/>
<path style="fill:#CAE9F7;" d="M256.001,184.422c-4.704,0-8.518-3.813-8.518-8.518V91.677c0-4.705,3.814-8.518,8.518-8.518
	c4.704,0,8.518,3.813,8.518,8.518v84.226C264.519,180.609,260.704,184.422,256.001,184.422z"/>
<path style="fill:#90C8EC;" d="M96.927,289.186h319.281c-12.63-76.772-79.289-135.344-159.64-135.344
	C176.22,153.842,109.56,212.414,96.927,289.186z"/>
<path style="fill:#3A5D74;" d="M292.929,240.117h-72.722c-12.048,0-21.816,9.769-21.816,21.816v27.253h116.355v-27.253
	C314.745,249.887,304.98,240.117,292.929,240.117z"/>
<g>
	<path style="opacity:0.1;fill:#231F20;enable-background:new    ;" d="M265.654,154.105c-3.007-0.167-6.035-0.261-9.086-0.261
		c-80.349,0-147.008,58.571-159.641,135.344h18.172C127.252,215.329,189.411,158.325,265.654,154.105z"/>
	<path style="opacity:0.1;fill:#231F20;enable-background:new    ;" d="M238.378,240.117h-18.172
		c-12.048,0-21.816,9.769-21.816,21.816v27.253h18.172v-27.253C216.562,249.887,226.33,240.117,238.378,240.117z"/>
</g>
<circle style="fill:#FF4D30;" cx="256.571" cy="82.555" r="24.296"/>
<path style="opacity:0.1;fill:#231F20;enable-background:new    ;" d="M250.444,82.554c0-10.202,6.298-18.922,15.211-22.522
	c-2.809-1.135-5.871-1.774-9.086-1.774c-13.417,0-24.296,10.878-24.296,24.296c0,13.417,10.879,24.296,24.296,24.296
	c3.215,0,6.277-0.639,9.086-1.774C256.741,101.476,250.444,92.756,250.444,82.554z"/>
<path style="fill:#578CAD;" d="M510.569,402.304l-27.64-39.615v-37.011c0-21.373-17.39-38.763-38.764-38.763H67.836
	c-21.374,0-38.766,17.389-38.766,38.763v37.011L1.43,402.304c-1.694,2.43-1.899,5.6-0.529,8.226
	c1.371,2.626,4.087,4.274,7.049,4.274h496.099c2.962,0,5.679-1.647,7.048-4.274C512.468,407.903,512.265,404.733,510.569,402.304z"
	/>
<path style="fill:#4E85A0;" d="M0.901,410.53c1.371,2.626,4.087,4.274,7.049,4.274h496.099c2.962,0,5.679-1.647,7.048-4.274
	c1.37-2.627,1.166-5.797-0.529-8.226l-27.64-39.615H29.07L1.43,402.304C-0.264,404.733-0.469,407.903,0.901,410.53z"/>
<path style="opacity:0.1;fill:#231F20;enable-background:new    ;" d="M19.072,412.801c-1.37-2.627-1.165-5.797,0.529-8.226
	l27.64-39.615v-39.282c0-21.373,17.391-38.763,38.766-38.763H67.836c-21.374,0-38.766,17.389-38.766,38.763v37.011L1.43,402.304
	c-1.694,2.43-1.899,5.6-0.529,8.226c1.371,2.626,4.087,4.274,7.049,4.274H20.58C19.987,414.224,19.468,413.56,19.072,412.801z"/>
</svg>